<svg xmlns="http://www.w3.org/2000/svg" xmlns:xlink="http://www.w3.org/1999/xlink" version="1.0" x="0" y="0" width="2400" height="2764.0810701208557" viewBox="143.07200611114501 93.98701465606689 53.85599922180176 62.025978317260744" preserveAspectRatio="xMidYMid meet" color-interpolation-filters="sRGB"><g><defs><linearGradient id="92" x1="0%" y1="0%" x2="100%" y2="0%"><stop offset="0%" stop-color="#fa71cd"></stop> <stop offset="100%" stop-color="#9b59b6"></stop></linearGradient><linearGradient id="93" x1="0%" y1="0%" x2="100%" y2="0%"><stop offset="0%" stop-color="#f9d423"></stop> <stop offset="100%" stop-color="#f83600"></stop></linearGradient><linearGradient id="94" x1="0%" y1="0%" x2="100%" y2="0%"><stop offset="0%" stop-color="#0064d2"></stop> <stop offset="100%" stop-color="#1cb0f6"></stop></linearGradient><linearGradient id="95" x1="0%" y1="0%" x2="100%" y2="0%"><stop offset="0%" stop-color="#f00978"></stop> <stop offset="100%" stop-color="#3f51b1"></stop></linearGradient><linearGradient id="96" x1="0%" y1="0%" x2="100%" y2="0%"><stop offset="0%" stop-color="#7873f5"></stop> <stop offset="100%" stop-color="#ec77ab"></stop></linearGradient><linearGradient id="97" x1="0%" y1="0%" x2="100%" y2="0%"><stop offset="0%" stop-color="#f9d423"></stop> <stop offset="100%" stop-color="#e14fad"></stop></linearGradient><linearGradient id="98" x1="0%" y1="0%" x2="100%" y2="0%"><stop offset="0%" stop-color="#009efd"></stop> <stop offset="100%" stop-color="#2af598"></stop></linearGradient><linearGradient id="99" x1="0%" y1="0%" x2="100%" y2="0%"><stop offset="0%" stop-color="#ffcc00"></stop> <stop offset="100%" stop-color="#00b140"></stop></linearGradient><linearGradient id="100" x1="0%" y1="0%" x2="100%" y2="0%"><stop offset="0%" stop-color="#d51007"></stop> <stop offset="100%" stop-color="#ff8177"></stop></linearGradient><linearGradient id="102" x1="0%" y1="0%" x2="100%" y2="0%"><stop offset="0%" stop-color="#a2b6df"></stop> <stop offset="100%" stop-color="#0c3483"></stop></linearGradient><linearGradient id="103" x1="0%" y1="0%" x2="100%" y2="0%"><stop offset="0%" stop-color="#7ac5d8"></stop> <stop offset="100%" stop-color="#eea2a2"></stop></linearGradient><linearGradient id="104" x1="0%" y1="0%" x2="100%" y2="0%"><stop offset="0%" stop-color="#00ecbc"></stop> <stop offset="100%" stop-color="#007adf"></stop></linearGradient><linearGradient id="105" x1="0%" y1="0%" x2="100%" y2="0%"><stop offset="0%" stop-color="#b88746"></stop> <stop offset="100%" stop-color="#fdf5a6"></stop></linearGradient></defs><g class="imagesvg isNoFont" transform="translate(143.60000038146973,94.51501083374023)"><g><rect fill="#000000" fill-opacity="0" stroke-width="2" x="0" y="0" width="52.8" height="60.96997690531177" class="image-rect"></rect> <svg x="0" y="0" width="52.8" height="60.96997690531177" filtersec="colorsb2145659907" class="image-svg-svg primary" style="overflow: visible;"><svg xmlns="http://www.w3.org/2000/svg" viewBox="0 0 166.4199981689453 192.17001342773438"><path fill="#215ea9" d="M33.16 112.21V67.19l39-22.51-11.06-6.39-38.99 22.52v45.02l11.05 6.38z"></path><path fill="#bd2785" d="M83.21 192.17l83.21-48.04v-12.77L83.21 179.4 0 131.36v12.77l83.21 48.04z"></path><path fill="#803088" d="M0 118.59l83.21 48.05 83.21-48.05v-12.76l-83.21 48.04L0 105.83v12.76z"></path><path fill="#0a74ba" d="M11.05 99.45V54.42L61.1 25.53l72.16 41.66v45.02l11.05-6.38V60.81L61.1 12.77 0 48.04v45.02l11.05 6.39z"></path><path fill="#1698d5" d="M155.37 54.42v45.03l11.05-6.38V48.04L83.21 0 72.16 6.38l83.21 48.04z"></path><path fill="#514d9a" d="M44.46 73.71v44.75l38.75 22.37 38.75-22.37V73.71L83.21 51.34 44.46 73.71z"></path></svg></svg> </g></g><defs v-gra="od"></defs></g></svg>